# xmcd
#
# Track frame offsets:
#	150
#	26143
#	45560
#	63635
#	78337
#	100393
#	118223
#	137051
#	160254
#	176434
#
# Disc length: 2639 seconds
#
# Revision: 0
# Processed by: cddbd v1.5.2PL0 Copyright (c) Steve Scherf et al.
# Submitted via: EasyCDDAExtractor 16.0.9.1
#
DISCID=870a4d0a
DTITLE=Anh Tú - KH61: Nếu Như Ta Còn Thương Nhau
DYEAR=2004
DGENRE=Pop
TTITLE0=Anh Tú - Bến Vắng
TTITLE1=Anh Tú ft. Debbie Pope - Chén Tình Buồn
TTITLE2=Anh Tú - Chốn Xưa
TTITLE3=Thúy Hà Tú - I Will Always Love You
TTITLE4=Anh Tú - Nếu Như Ta Còn Thương Nhau
TTITLE5=Anh Tú - Lời Của Cha
TTITLE6=Anh Tú - Đã Qua Rồi Mùa Đông
TTITLE7=Anh Tú - Sầu Như Lá Cỏ
TTITLE8=Anh Tú - Quan Khuya
TTITLE9=Anh Tú - Khoảnh Khắc
EXTD=
EXTT0=
EXTT1=
EXTT2=
EXTT3=
EXTT4=
EXTT5=
EXTT6=
EXTT7=
EXTT8=
EXTT9=
PLAYORDER=
